<svg width="2000" height="2000" viewBox="0 0 2000 2000" fill="none" xmlns="http://www.w3.org/2000/svg">
<g clip-path="url(#clip0_144_10)">
<path d="M333 2017C333 2017 299 1561 725 1479C725 1423 725 1367 725 1367H1109V1463C1109 1463 1251 1469 1315 1521C1379 1573 1511 1669 1511 2017V2075H332.4L333 2017Z" fill="#519653"/>
<path d="M725 1367C725 1367 725 1400.9 725 1442.3C763.1 1492 923.5 1542.9 1026 1544C1133 1545.1 1263 1515 1284.7 1502C1214.6 1467.4 1109 1463 1109 1463V1367H725Z" fill="#296829"/>
<path d="M333 2017C333 2017 299 1561 725 1479C725 1423 725 1367 725 1367H1109V1463C1109 1463 1251 1469 1315 1521C1379 1573 1511 1669 1511 2017V2075H332.4L333 2017Z" stroke="black" stroke-width="18" stroke-miterlimit="10" stroke-linecap="round" stroke-linejoin="round"/>
<path d="M1309 1957V2075H622C622 2075 622 1986 622 1965C492 1970 332.4 1904 332.4 1904C389.8 1539 646.4 1493.7 677.7 1485C677.7 1485 725.7 1593 861 1643C996.3 1693 1096.3 1653.7 1138.3 1596.3C1180.3 1539 1155.6 1461.6 1155.6 1461.6C1501 1517 1505.6 1826.6 1511 1909C1468.4 1946.5 1309 1957 1309 1957Z" fill="white"/>
<path d="M1155.7 1461.7C1155.7 1461.7 1180.4 1539 1138.4 1596.4C1096.4 1653.7 996.4 1693.1 861.1 1643.1C725.8 1593.1 677.8 1485.1 677.8 1485.1C677.8 1442.4 715.1 1431.8 725.1 1431.1C759.8 1501.1 853.1 1609.6 1000.1 1592.6C1147.1 1575.6 1109.1 1451.8 1109.1 1451.8L1149.1 1450L1155.7 1461.7Z" fill="white"/>
<path d="M1155.7 1461.7C1155.7 1461.7 1177.3 1529.4 1145.7 1585C1207.3 1571.2 1266.3 1549.7 1318.7 1517.9C1275.2 1492.1 1221.7 1472.2 1155.7 1461.7Z" fill="#C61010"/>
<path d="M677.7 1485C663 1489.1 598.7 1501.2 528.6 1550.7C571.2 1562 663 1584 774.4 1596.6C704.5 1545.3 677.7 1485 677.7 1485Z" fill="#C41612"/>
<path d="M1488 1748.4C1479.2 1716.8 1466.6 1683.7 1448.7 1651.6C998.8 1936.6 485.3 1736.4 398.6 1699.1C382.2 1729.2 367.5 1763.5 355.5 1802.7C559.1 1877.8 1043 2006.3 1488 1748.4Z" fill="#44990E"/>
<path d="M1393.9 1577.3C1372.9 1555.5 1348.1 1535.3 1318.7 1517.9C1266.3 1549.7 1207.3 1571.2 1145.7 1585C1143.5 1588.8 1141.1 1592.6 1138.4 1596.3C1096.4 1653.6 996.4 1693 861.1 1643C826.9 1630.3 798.2 1614 774.5 1596.6C663.1 1584 571.3 1562 528.7 1550.7C502.6 1569.1 475.7 1592.7 450.3 1623C614.5 1681.3 1020.4 1786.8 1393.9 1577.3Z" fill="#E2710C"/>
<path d="M1488 1748.4C1043 2006.3 559.1 1877.8 355.5 1802.7C346.4 1832.1 338.9 1864.3 333.2 1899.4C333 1900.9 332.7 1902.4 332.5 1903.9C332.5 1903.9 480.8 1965.2 607.9 1965.2C612.7 1965.2 617.4 1965.1 622.1 1964.9C622.1 1965.7 622.1 1966.5 622.1 1967.4C873.4 2006.8 1194.7 2005.4 1507.5 1857.6C1504.6 1827 1499.3 1788.9 1488 1748.4Z" fill="#1E4EC4"/>
<path d="M622 1967.5C622 1992.3 622 2075 622 2075H1309V1957C1309 1957 1468.4 1946.5 1511 1909C1510.2 1896.5 1509.4 1878.9 1507.4 1857.7C1194.6 2005.5 873.3 2006.9 622 1967.5Z" fill="#61168E"/>
<path d="M1448.6 1651.6C1434.1 1625.8 1416.2 1600.6 1393.8 1577.3C1020.3 1786.8 614.4 1681.4 450.1 1623C431.9 1644.7 414.4 1669.9 398.5 1699.1C485.2 1736.5 998.8 1936.7 1448.6 1651.6Z" fill="#F2CF20"/>
<path d="M677.7 1485C646.4 1493.7 389.7 1539 332.4 1904C332.4 1904 492 1970 622 1965C622 1986 622 2075 622 2075H1309V1957C1309 1957 1468.4 1946.5 1511 1909C1505.6 1826.5 1501 1517 1155.7 1461.6L1149.1 1449.9L1109.1 1451.7C1109.1 1451.7 1147.1 1575.5 1000.1 1592.5C853.1 1609.5 759.7 1501 725 1431C715 1431.7 677.7 1442.3 677.7 1485Z" stroke="black" stroke-width="18" stroke-miterlimit="10" stroke-linecap="round" stroke-linejoin="round"/>
<path d="M622 1965C622 1965 623 1884.5 616 1857.5C609 1830.5 513 1696 497 1669" stroke="black" stroke-width="18" stroke-miterlimit="10" stroke-linecap="round" stroke-linejoin="round"/>
<path d="M1309 1957C1306 1920 1309 1853 1319 1824C1329 1795 1352.2 1708.4 1345 1624" stroke="black" stroke-width="18" stroke-miterlimit="10" stroke-linecap="round" stroke-linejoin="round"/>
<path d="M677.7 1485C677.7 1485 725.7 1593 861 1643C996.3 1693 1096.3 1653.7 1138.3 1596.3C1180.3 1539 1155.6 1461.6 1155.6 1461.6" stroke="black" stroke-width="18" stroke-miterlimit="10" stroke-linecap="round" stroke-linejoin="round"/>
<path d="M945 813.1C759 825 657 883 599 1055C541 1227 625 1407 805 1435C985 1463 1192.1 1454.4 1295.8 1432.5C1407 1409 1533 1341 1546 1211.6C1557.5 1097 1528.9 1011.3 1447.2 942.8C1373.2 880.8 1264.7 792.7 945 813.1Z" fill="#519653"/>
<path d="M765 1373C649.7 1331.6 624 1262 581 1173C584.8 1301.7 666.4 1413.4 805 1435C985 1463 1192.1 1454.4 1295.8 1432.5C1308.4 1429.8 1321.1 1426.6 1333.9 1422.8C1234.8 1447.4 887.2 1416.9 765 1373Z" fill="#296829"/>
<path d="M945 813.1C759 825 657 883 599 1055C541 1227 625 1407 805 1435C985 1463 1192.1 1454.4 1295.8 1432.5C1407 1409 1533 1341 1546 1211.6C1557.5 1097 1528.9 1011.3 1447.2 942.8C1373.2 880.8 1264.7 792.7 945 813.1Z" stroke="black" stroke-width="18" stroke-miterlimit="10" stroke-linecap="round" stroke-linejoin="round"/>
<path d="M1416.7 1032.4C1438.1 1026.6 1455.5 1015.4 1469.4 1003.1C1497.2 978.7 1510.8 947.2 1510.8 925.7L1372.5 852.3L935 908.8L893.6 920.7C893.6 920.7 934.7 1028.9 1058.6 1037.1C1130.9 1041.9 1175.5 1034.9 1212.8 981.3C1234.3 1011.2 1317.6 1059 1416.7 1032.4Z" fill="#519653"/>
<path d="M1440 701.8C1440 678.4 1388.5 627.1 1301.6 633.7C1214.7 640.4 1177.7 683.2 1165.7 704C1164.2 703.2 1162.7 702.3 1161.2 701.6C1147.6 664.3 1102.9 633.8 1037.2 633.8C953.5 633.8 811.8 716 806.3 852.3V876.7C806.3 905.8 827.2 930.7 855.9 935.6L905.5 943.5L1015 916.5L1214.5 890.7L1417.9 897.7L1490.1 792.6C1496.3 769.1 1486.9 723.9 1440 701.8Z" fill="#519653"/>
<path d="M1105.3 896.8C1111.9 896.8 1117.2 902.1 1117.2 908.7C1117.2 915.3 1111.9 920.6 1105.3 920.6C1098.7 920.6 1093.4 915.3 1093.4 908.7C1093.4 902.1 1098.7 896.8 1105.3 896.8Z" fill="white"/>
<path d="M1394.5 896.8C1401.1 896.8 1406.4 902.1 1406.4 908.7C1406.4 915.3 1401.1 920.6 1394.5 920.6C1387.9 920.6 1382.6 915.3 1382.6 908.7C1382.6 902.1 1387.9 896.8 1394.5 896.8Z" fill="white"/>
<path d="M1436.8 876.6C1448.45 876.6 1457.9 867.153 1457.9 855.5C1457.9 843.847 1448.45 834.4 1436.8 834.4C1425.15 834.4 1415.7 843.847 1415.7 855.5C1415.7 867.153 1425.15 876.6 1436.8 876.6Z" fill="white"/>
<path d="M1415.7 803.7C1453.1 803.7 1483.4 834 1483.4 871.4C1483.4 908.8 1453.1 939.1 1415.7 939.1C1378.3 939.1 1348 908.8 1348 871.4C1348 834 1378.2 803.7 1415.7 803.7ZM1457.9 855.5C1457.9 843.8 1448.4 834.4 1436.8 834.4C1425.2 834.4 1415.7 843.9 1415.7 855.5C1415.7 867.2 1425.2 876.6 1436.8 876.6C1448.4 876.6 1457.9 867.1 1457.9 855.5ZM1406.4 908.7C1406.4 902.1 1401.1 896.8 1394.5 896.8C1387.9 896.8 1382.6 902.1 1382.6 908.7C1382.6 915.3 1387.9 920.6 1394.5 920.6C1401.1 920.6 1406.4 915.3 1406.4 908.7Z" fill="black"/>
<path d="M1126.4 803.7C1163.8 803.7 1194.1 834 1194.1 871.4C1194.1 908.8 1163.8 939.1 1126.4 939.1C1089 939.1 1058.7 908.8 1058.7 871.4C1058.7 834 1089 803.7 1126.4 803.7ZM1168.7 855.5C1168.7 843.8 1159.2 834.4 1147.6 834.4C1135.9 834.4 1126.5 843.9 1126.5 855.5C1126.5 867.2 1136 876.6 1147.6 876.6C1159.2 876.6 1168.7 867.1 1168.7 855.5ZM1117.2 908.7C1117.2 902.1 1111.9 896.8 1105.3 896.8C1098.7 896.8 1093.4 902.1 1093.4 908.7C1093.4 915.3 1098.7 920.6 1105.3 920.6C1111.8 920.6 1117.2 915.3 1117.2 908.7Z" fill="black"/>
<path d="M1440 701.8C1420 692.4 1393.2 687.1 1358 689.6C1249.2 697 1209.8 762 1209.8 762C1203.2 739.4 1189.3 717.6 1165.7 704.1C1177.7 683.4 1214.7 640.5 1301.6 633.8C1388.5 627.1 1440 678.4 1440 701.8Z" fill="#519653"/>
<path d="M1440 701.8C1486.9 723.9 1496.3 769 1490.1 792.6C1461.1 765 1417.3 747.4 1368.3 747.4C1309.3 747.4 1257.8 772.9 1230.7 810.7C1226 804.1 1220.6 798 1214.5 792.2C1214.3 782.4 1212.8 772.1 1209.8 761.9C1209.8 761.9 1249.2 697 1358 689.5C1393.2 687.2 1420 692.4 1440 701.8Z" fill="#519653"/>
<path d="M1147.6 876.6C1159.25 876.6 1168.7 867.153 1168.7 855.5C1168.7 843.847 1159.25 834.4 1147.6 834.4C1135.95 834.4 1126.5 843.847 1126.5 855.5C1126.5 867.153 1135.95 876.6 1147.6 876.6Z" fill="white"/>
<path d="M953.5 900.6C987.2 891.2 1045 897.1 1058.7 920.6C1070.4 940.7 1097.9 944.1 1115.1 938.2C1083.1 932.8 1058.7 905 1058.7 871.4C1058.7 834 1089 803.7 1126.4 803.7C1163.8 803.7 1194.1 834 1194.1 871.4C1194.1 894.8 1182.3 915.4 1164.3 927.5C1193.4 926.8 1228.1 925.8 1247.8 896.7C1249.9 888.7 1251 880.3 1251 871.8C1251 849.6 1243.6 828.7 1230.6 810.6C1225.9 804 1220.5 797.9 1214.4 792.1C1185.4 764.7 1141.8 747.3 1093 747.3C1012.5 747.3 946 794.7 936.3 856.1L935.9 856C935.9 856 898.9 848.7 893.7 882.6C916 897.3 942.5 903.6 953.5 900.6Z" fill="white"/>
<path d="M1247.9 896.8C1228.2 925.8 1193.4 926.9 1164.4 927.6C1153.6 934.9 1140.5 939.2 1126.5 939.2C1122.6 939.2 1118.8 938.9 1115.1 938.2C1098 944.2 1070.5 940.8 1058.7 920.6C1045 897.1 987.2 891.2 953.5 900.6C942.6 903.6 916 897.3 893.7 882.7C893.5 884 893.3 885.3 893.2 886.7C890.7 918.9 935.2 925.7 951.4 927C977.2 968.1 1031 996.4 1093.1 996.4C1155.9 996.4 1210.1 967.5 1235.6 925.7C1241.1 916.6 1245.3 906.9 1247.9 896.8Z" fill="#CBFAFF"/>
<path d="M1490.1 792.6C1461.1 765 1417.3 747.4 1368.3 747.4C1309.3 747.4 1257.8 772.9 1230.7 810.7C1243.7 828.8 1251.1 849.6 1251.1 871.9C1251.1 881 1249.8 889.9 1247.5 898.5C1262.7 911.5 1285.2 927.9 1302.9 927.6C1332.2 927.1 1339.2 914.9 1348 925.7C1356.8 936.5 1390 951.3 1415.7 939.2C1378.3 939.2 1348 908.9 1348 871.5C1348 834.1 1378.3 803.8 1415.7 803.8C1453.1 803.8 1483.4 834.1 1483.4 871.5C1483.4 899.7 1466.2 923.9 1441.7 934.1C1462.7 932.7 1488.7 932.9 1516.6 915.2C1522.9 901.8 1526.4 887.2 1526.4 872.1C1526.3 841.7 1512.7 814.1 1490.1 792.6Z" fill="white"/>
<path d="M1415.7 939.2C1390 951.3 1356.8 936.5 1348 925.7C1339.2 914.9 1332.2 927.1 1302.9 927.6C1285.2 927.9 1262.7 911.6 1247.5 898.5C1244.9 908 1240.9 917.1 1235.7 925.7C1235.7 929.5 1235.3 933.6 1234.4 937.9C1262.3 973 1311.9 996.4 1368.4 996.4C1431.2 996.4 1485.4 967.5 1510.9 925.7C1513 922.2 1514.9 918.7 1516.6 915.1C1488.7 932.8 1462.7 932.6 1441.7 934C1433.6 937.3 1424.9 939.2 1415.7 939.2Z" fill="#CBFAFF"/>
<path d="M1235.6 925.7C1210.1 967.5 1155.9 996.4 1093.1 996.4C1031 996.4 977.2 968.1 951.4 927" stroke="black" stroke-width="18" stroke-miterlimit="10" stroke-linecap="round" stroke-linejoin="round"/>
<path d="M1230.7 810.7C1243.7 828.8 1251.1 849.6 1251.1 871.9C1251.1 891.2 1245.5 909.4 1235.6 925.7" stroke="black" stroke-width="18" stroke-miterlimit="10" stroke-linecap="round" stroke-linejoin="round"/>
<path d="M935.9 884.6C935.4 880.4 935.1 876.2 935.1 871.9C935.1 866.6 935.5 861.4 936.3 856.2C946.1 794.9 1012.5 747.4 1093 747.4C1141.8 747.4 1185.4 764.8 1214.4 792.2C1220.5 797.9 1225.9 804.1 1230.6 810.7" stroke="black" stroke-width="18" stroke-miterlimit="10" stroke-linecap="round" stroke-linejoin="round"/>
<path d="M1510.8 925.6C1520.7 909.3 1526.3 891.1 1526.3 871.8C1526.3 841.7 1512.7 814 1490.1 792.5C1461.1 764.9 1417.3 747.3 1368.3 747.3C1309.3 747.3 1257.8 772.8 1230.7 810.6" stroke="black" stroke-width="18" stroke-miterlimit="10" stroke-linecap="round" stroke-linejoin="round"/>
<path d="M1234.3 937.8C1262.2 972.9 1311.8 996.3 1368.3 996.3C1431.1 996.3 1485.3 967.4 1510.8 925.6" stroke="black" stroke-width="18" stroke-miterlimit="10" stroke-linecap="round" stroke-linejoin="round"/>
<path d="M935.9 856.1C935.9 856.1 896.1 848.3 893.2 886.7C890.7 918.9 935.2 925.7 951.4 927" stroke="black" stroke-width="18" stroke-miterlimit="10" stroke-linecap="round" stroke-linejoin="round"/>
<path d="M1194.2 871.4C1194.2 908.8 1163.9 939.1 1126.5 939.1C1089.1 939.1 1058.8 908.8 1058.8 871.4C1058.8 834 1089.1 803.7 1126.5 803.7C1163.9 803.7 1194.2 834 1194.2 871.4Z" stroke="black" stroke-width="18" stroke-miterlimit="10" stroke-linecap="round" stroke-linejoin="round"/>
<path d="M1483.4 871.4C1483.4 908.8 1453.1 939.1 1415.7 939.1C1378.3 939.1 1348 908.8 1348 871.4C1348 834 1378.3 803.7 1415.7 803.7C1453.1 803.7 1483.4 834 1483.4 871.4Z" stroke="black" stroke-width="18" stroke-miterlimit="10" stroke-linecap="round" stroke-linejoin="round"/>
<path d="M1161.1 701.6C1150.5 696.3 1138 692.5 1123.6 690.9C1058.4 683.9 993.2 705.6 959.1 744.3C925 783 911.5 794.2 893 797.7C874.5 801.2 859.6 811.8 859.8 834.2" stroke="black" stroke-width="18" stroke-miterlimit="10" stroke-linecap="round" stroke-linejoin="round"/>
<path d="M1214.4 792.2C1214.2 782.4 1212.7 772.1 1209.7 761.9C1203.1 739.3 1189.2 717.5 1165.6 704C1164.1 703.2 1162.6 702.3 1161.1 701.6" stroke="black" stroke-width="18" stroke-miterlimit="10" stroke-linecap="round" stroke-linejoin="round"/>
<path d="M1161.1 701.6C1147.5 664.3 1102.8 633.8 1037.2 633.8C953.5 633.8 811.8 716 806.3 852.3" stroke="black" stroke-width="18" stroke-miterlimit="10" stroke-linecap="round" stroke-linejoin="round"/>
<path d="M1490.1 792.6C1496.3 769.1 1486.9 723.9 1440 701.8C1420 692.4 1393.2 687.1 1358 689.6C1249.2 697 1209.8 762 1209.8 762" stroke="black" stroke-width="18" stroke-miterlimit="10" stroke-linecap="round" stroke-linejoin="round"/>
<path d="M1440 701.8C1440 678.3 1388.5 627.1 1301.6 633.7C1214.7 640.4 1177.7 683.2 1165.7 704" stroke="black" stroke-width="18" stroke-miterlimit="10" stroke-linecap="round" stroke-linejoin="round"/>
<path d="M1139.7 1032.4C1207.6 1017.8 1230.4 958.1 1234.3 937.9C1235.1 933.6 1235.6 929.5 1235.6 925.7" stroke="black" stroke-width="18" stroke-miterlimit="10" stroke-linecap="round" stroke-linejoin="round"/>
<path d="M1469.4 1003C1497.2 978.6 1510.8 947.1 1510.8 925.6" stroke="black" stroke-width="18" stroke-miterlimit="10" stroke-linecap="round" stroke-linejoin="round"/>
<path d="M1416.7 1032.4C1437.9 1025.9 1455.5 1015.4 1469.4 1003.1" stroke="black" stroke-width="18" stroke-miterlimit="10" stroke-linecap="round" stroke-linejoin="round"/>
<path d="M1361.3 575.2C1375.6 577.4 1390.6 580.3 1406.4 584C1616.5 633.2 1658 668.4 1619 689C1591.7 703.4 1476.2 729.7 1469.4 723C1413.8 673.4 1154.6 661.4 1033.3 721.5L1032.9 720.8C1089.5 656.6 1157 543.9 1361.3 575.2Z" fill="#1B1B1B"/>
<path d="M1226.6 471.6C1270.4 496.3 1324.4 535.9 1361.3 575.2C1156.9 543.9 1089.4 656.6 1032.9 720.8L1033.3 721.5C1020.5 727.8 1009.3 735 1000 742.9C890.6 836.4 728.6 908.6 660.8 933.3C617 855.4 615 729.8 651.4 668.5C704.8 599.4 796.3 511.7 893.5 460.9C1017.6 417.1 1124.2 431.6 1226.6 471.6Z" fill="#3D3D3D"/>
<path d="M737 834.3C710.8 841.3 664.3 810.7 625.9 780C625.2 833.1 636.7 890.5 660.8 933.4C728.6 908.7 890.6 836.6 1000 743C933 797 787 821 737 834.3Z" fill="#1B1B1B"/>
<path d="M1059.4 618.7C1057.9 618.8 1056.5 618.6 1055 617.9C1053.5 617.2 1051.9 616 1050.4 614.2C1049.1 612.7 1047.7 610.7 1046.2 608.2C1044.8 605.9 1043.1 602.9 1041.3 599.3C1039.6 596.8 1038 593.9 1036.5 590.7L1032.3 581.8C1031.3 579.8 1030.8 578.7 1030.5 578.2L1030.4 578.1L1028.3 573.7C1027.4 571.9 1026.6 569.9 1025.7 568C1024.8 566 1024.1 564 1023.4 562.1C1022.8 560.4 1022.4 558.9 1022.3 557.7C1022 557.3 1021.8 556.8 1021.6 556.4C1020.4 553.8 1019.4 551.5 1018.6 549.5C1017.9 547.6 1017.2 545.7 1016.6 543.8C1016 542 1015.5 540.3 1014.9 538.5C1014.4 536.8 1013.6 534.7 1012.7 532.3C1011.5 529.1 1010.7 526.6 1010.4 524.6C1009.9 521.8 1011.1 520.2 1013.8 519.9C1015 519.8 1016.4 520.1 1018.1 520.8C1020.2 521.7 1022 523.3 1022.9 525.3C1023.3 526.1 1023.8 527.2 1024.4 528.7C1025.1 530.2 1025.9 532.3 1026.9 535C1027.9 537.6 1029.1 540.8 1030.6 544.6C1031.9 548 1033.4 552.1 1035.2 556.8C1035.6 556.9 1036.1 557 1036.7 557C1038.1 557.1 1039.4 557.2 1040.7 557.1C1042.1 557 1043.7 556.9 1045.9 556.8H1046.3L1046.8 557C1047.1 557.1 1048.1 557.3 1050.3 557.2C1053.4 556.9 1055.3 556.8 1056.4 556.6L1056.3 556.5L1059.6 556.2C1061.7 556 1063.5 555.7 1064.9 555.3C1065.9 555 1066.9 554.7 1067.7 554.3L1067.1 553.1C1065.6 550 1063.3 546 1060.3 541.3L1060.2 541.1L1059.1 538.8C1057.6 535.6 1055.9 532.6 1054 529.7L1053.8 529.5L1053.7 529.3C1052.8 527.4 1051.3 522.8 1057.4 522.3C1060 522.1 1062.7 523.4 1065.1 526C1067.1 528.2 1068.9 531 1070.7 534.8L1071.7 536.9C1075.1 544.1 1078.4 550 1081.5 554.4L1081.7 554.7L1081.8 555C1083.1 557.7 1084.7 561 1086.7 564.8C1088.7 568.6 1091.1 573.1 1093.8 578.1L1094 578.4L1094.1 578.7C1094.2 579.1 1094.4 579.6 1094.7 580.1L1097.4 585.8C1097.9 586.9 1098.5 588.1 1099.2 589.4L1099.3 589.6C1099.6 590.2 1099.9 590.9 1100.4 591.7C1100.9 592.6 1101.5 593.6 1102.1 594.6C1102.7 595.6 1103.3 596.6 1103.9 597.4C1104.6 598.4 1105 599.2 1105.3 599.8C1107.6 604.7 1106.6 607.7 1102.6 608.1C1100.2 608.3 1097.6 607.4 1095.3 605.5L1094.7 605L1087.9 593.3L1087.2 591.9C1086.9 591.3 1086.6 590.7 1086.2 589.9C1085.8 589.1 1085.3 588.2 1084.7 587.2L1080.4 579.9L1080.3 579.5C1079.7 577.7 1079.1 576 1078.3 574.5C1077.3 572.4 1076.2 570.5 1074.9 568.7C1074 569 1072.9 569.3 1071.5 569.7C1068.8 570.4 1065.2 571 1060.8 571.4C1058.9 571.6 1057.4 571.6 1056.2 571.5C1055.1 571.4 1054 571.3 1053 571.2C1052.1 571.1 1051.1 571 1050.1 570.9C1049.1 570.8 1047.8 570.9 1046 571L1041 571.4C1042 573.7 1042.8 575.8 1043.6 577.7C1044.6 580.2 1045.6 582.4 1046.5 584.4C1048.2 588.1 1049.7 590.8 1050.9 592.4L1051.1 592.6L1051.2 592.8C1052.9 596 1054.4 598.8 1055.7 601.1C1057 603.4 1058.1 605.4 1059 606.9L1061.8 611.8L1062.3 612.9C1063 614.1 1064.5 618.3 1059.4 618.7Z" fill="#F2CF20"/>
<path d="M1155.1 599.4C1147.9 600 1140.5 598.2 1133.3 594.1C1126.1 590 1118.9 583.3 1111.8 574L1111.7 573.8L1111.6 573.6C1111.1 572.8 1110.6 571.9 1110.2 571.1L1109.1 568.7C1105.7 561.6 1103.4 555.2 1102.1 549.8C1100.9 544.4 1100.4 539.6 1100.7 535.6C1101 531.6 1102 528.2 1103.4 525.4C1104.9 522.6 1106.7 520.3 1108.8 518.5L1108.9 518.4L1109.1 518.3C1113.3 516.4 1117.7 515.2 1122.2 514.8C1125.8 514.5 1129.8 515.3 1134.2 517.1C1138.5 518.9 1142.9 521.6 1147.2 525.2C1151.5 528.7 1155.7 533.1 1159.7 538.2C1163.7 543.3 1167.4 549.2 1170.7 555.6L1170.8 555.7L1176 567.4L1176.1 567.7C1177.5 573.5 1177.1 580.1 1174.8 587.9L1174.7 588.3L1174.4 588.5C1173.9 588.9 1173.3 589.6 1172.7 590.5C1171.9 591.6 1170.9 592.8 1169.5 594C1168.1 595.2 1166.2 596.3 1164 597.2C1161.8 598.4 1158.8 599.1 1155.1 599.4ZM1130.6 528.9C1125.4 529.3 1121.5 531.1 1118.9 534.1C1116.4 537.1 1115.6 540.9 1116.4 545.9C1117.8 554.3 1119.7 561.2 1122.1 566.3C1123.3 568.9 1124.9 571.4 1126.8 573.7C1128.7 576 1130.7 578.1 1133 579.8C1135.2 581.5 1137.6 582.8 1140.1 583.8C1142.5 584.7 1144.9 585.1 1147.2 584.9C1150.9 584.6 1153.9 583.9 1156 582.9C1158.1 581.9 1159.7 580.7 1160.7 579.2C1161.7 577.8 1162.4 576.1 1162.6 574.3C1162.8 572.4 1162.8 570.3 1162.6 568.1C1161.8 565.6 1161 563.5 1160.3 561.8C1159.6 560 1159 558.6 1158.5 557.5C1156.5 553.3 1154.1 549.4 1151.4 545.9C1148.6 542.3 1145.8 539.1 1143.1 536.5C1140.4 534 1137.9 532 1135.5 530.6C1132.6 529.1 1131.3 528.8 1130.6 528.9Z" fill="#F2CF20"/>
<path d="M1322.6 570.9C1320.7 569 1318.8 568.5 1317.6 568.3C1315 568 1312.6 567.7 1310.4 567.6C1308.2 567.5 1306.1 567.5 1304.3 567.7C1303.2 567.8 1302.2 568 1301.3 568.2C1300.6 568.4 1299.7 568.6 1298.8 568.6C1296.6 568.8 1293.2 568.7 1288.7 568.3C1288.2 567.6 1287.7 566.5 1287 565C1286.7 564.3 1286 562.8 1284.6 559.3C1283.4 556.4 1281.9 552.5 1280.1 547.7L1279.9 547.2L1279.5 546.7C1279.2 546.3 1278.9 545.8 1278.6 545.3C1278.5 545.1 1278.2 544.4 1277.3 542C1276.6 540.1 1275.9 538.2 1275.1 536.1C1274.3 534 1273.6 532.1 1272.9 530.3C1272.2 528.4 1271.7 527.1 1271.3 526.4C1270.8 525.4 1270.3 524.5 1269.8 523.7C1268.6 520.3 1267.7 517.5 1267 515.2C1266.3 512.9 1265.8 511.1 1265.5 509.8L1265.4 509.5L1265.2 509.1C1262.6 503.6 1258.7 500.6 1254.4 501C1252.1 501.2 1250.7 502.4 1250.4 504.5C1250.1 506.2 1250.3 508.2 1250.8 510.4C1251.3 512.4 1252 514.5 1252.9 516.5C1253.7 518.4 1254.4 519.9 1254.8 520.9L1255.6 522.6C1256.2 524 1257.1 526.1 1258.1 528.9C1259.1 531.8 1260.4 535.5 1261.8 539.9L1262 540.6L1262.5 541.2C1262.7 541.4 1262.9 541.7 1263 542.1L1264 544.3C1265.5 547.5 1267.1 551.2 1268.7 555.5C1270.4 559.9 1272.1 564 1273.8 567.6C1274.3 568.6 1274.7 569.5 1275.1 570.3C1290.2 569.6 1305.9 569.7 1322.6 570.9Z" fill="#F2CF20"/>
<path d="M1230.7 521.2L1230.6 521L1230.4 520.8C1228.7 519.1 1226.5 517.3 1224 515.7C1221.5 514.1 1218.8 512.8 1215.9 511.6C1213 510.5 1210 509.6 1206.8 508.9C1203.6 508.2 1200.3 508 1197.2 508.3C1192.7 508.7 1188.4 510 1184.5 512.2C1182.7 511.3 1181 511 1179.4 511.1C1174 511.6 1173.2 514.9 1173.5 517.7V518L1173.6 518.3C1176 525 1178.3 531 1180.4 536.3C1182.5 541.6 1184.5 546.2 1186.3 550C1190.4 558.6 1194.6 566.6 1199 573.7C1200.9 576.9 1202.7 579.8 1204.2 582.6C1208 581.4 1211.8 580.3 1215.7 579.3C1215.3 578.6 1214.8 577.9 1214.4 577.2C1212.1 573.5 1210.1 569.9 1208.3 566.6C1206.5 563.3 1205 560.4 1203.8 557.9C1202.6 555.4 1201.7 553.5 1201.1 552.3C1195.1 539.7 1191.5 530.9 1190.3 526.1C1190.6 526.1 1191.1 526 1192.5 525.6C1193.5 525.3 1194.7 525 1196 524.6C1197.3 524.2 1198.6 523.9 1200 523.5C1201.3 523.2 1202.3 523 1203 522.9C1205.3 522.7 1207.5 523 1209.6 523.8C1212.8 524.9 1215.4 526 1217.6 527.1C1219.6 528.1 1221.3 529.2 1222.7 530.3C1224 531.4 1225.2 532.6 1226.3 534C1227.4 535.5 1228.5 537.2 1229.7 539.2L1230.7 541.3C1233 546.1 1234.4 550.6 1234.8 554.7C1235.3 558.9 1235.2 562.6 1234.7 565.8C1234.2 569 1233.4 571.7 1232.4 573.8C1232 574.6 1231.7 575.2 1231.4 575.7C1237.1 574.6 1242.9 573.6 1248.9 572.7C1249.2 571.4 1249.5 570.2 1249.8 569.1V569V568.9C1251 560.4 1249.5 551.3 1245.1 541.8C1242.9 537.5 1238.2 530.7 1230.7 521.2Z" fill="#F2CF20"/>
<path d="M1361.4 575.2C1324.5 535.8 1270.5 496.3 1226.7 471.6C1124.3 431.6 1017.7 417.2 893.7 461C796.5 511.8 705 599.4 651.6 668.6C615.1 729.9 617.1 855.5 661 933.4C728.8 908.7 890.8 836.6 1000.2 743C1009.5 735 1020.7 727.9 1033.5 721.6C1154.8 661.4 1414 673.5 1469.6 723.1" stroke="black" stroke-width="18" stroke-miterlimit="10" stroke-linecap="round" stroke-linejoin="round"/>
<path d="M1025.6 668.6C1025.6 668.6 975 551 909 513" stroke="black" stroke-width="18" stroke-miterlimit="10" stroke-linecap="round" stroke-linejoin="round"/>
<path d="M1032.9 720.8C1089.5 656.6 1156.9 543.9 1361.3 575.2C1375.6 577.4 1390.6 580.3 1406.4 584C1616.5 633.2 1658 668.4 1619 689C1591.7 703.4 1476.2 729.7 1469.4 723" stroke="black" stroke-width="18" stroke-miterlimit="10" stroke-linecap="round" stroke-linejoin="round"/>
<path d="M1281.2 1025.9C1298.7 1041.4 1323.3 1057.7 1323.3 1081.3C1323.3 1115.7 1283.7 1130.2 1269.7 1099.4" stroke="black" stroke-width="18" stroke-miterlimit="10" stroke-linecap="round" stroke-linejoin="round"/>
<path d="M1312.4 1237.4C1342 1230.9 1366.5 1215.8 1380.4 1196.1C1388.4 1207.4 1393 1220.3 1393 1233.9C1393 1279.6 1342.3 1316.6 1279.7 1316.6C1217.1 1316.6 1166.4 1279.6 1166.4 1233.9C1166.4 1220.3 1170.9 1207.4 1179 1196.1C1192.7 1215.5 1216.6 1230.4 1245.6 1237.1C1256.4 1239.6 1267.9 1240.9 1279.8 1240.9C1291 1240.9 1302 1239.7 1312.4 1237.4Z" fill="black"/>
<path d="M1312.4 1154.8C1342 1161.3 1366.5 1176.4 1380.4 1196.1C1366.5 1215.8 1342 1230.9 1312.4 1237.4V1154.8Z" fill="white"/>
<path d="M1312.4 1154.8V1237.4C1302 1239.7 1291 1240.9 1279.6 1240.9C1267.7 1240.9 1256.2 1239.6 1245.4 1237.1V1155.2C1256.2 1152.7 1267.7 1151.4 1279.6 1151.4C1291 1151.3 1302 1152.5 1312.4 1154.8Z" fill="white"/>
<path d="M1245.4 1155.1V1237C1216.5 1230.3 1192.6 1215.4 1178.8 1196C1192.5 1176.7 1216.4 1161.8 1245.4 1155.1Z" fill="white"/>
<path d="M1380.4 1196.1C1388.4 1207.4 1393 1220.3 1393 1233.9C1393 1279.6 1342.3 1316.6 1279.7 1316.6C1217.1 1316.6 1166.4 1279.6 1166.4 1233.9C1166.4 1220.3 1170.9 1207.4 1179 1196.1C1192.7 1176.7 1216.6 1161.8 1245.6 1155.1C1256.4 1152.6 1267.9 1151.3 1279.8 1151.3C1291.2 1151.3 1302.2 1152.5 1312.6 1154.8C1342 1161.3 1366.5 1176.4 1380.4 1196.1Z" stroke="black" stroke-width="15" stroke-miterlimit="10" stroke-linecap="round" stroke-linejoin="round"/>
<path d="M1178.8 1196.1C1192.5 1215.5 1216.4 1230.4 1245.4 1237.1C1256.2 1239.6 1267.7 1240.9 1279.6 1240.9C1291 1240.9 1302 1239.7 1312.4 1237.4C1342 1230.9 1366.5 1215.8 1380.4 1196.1" stroke="black" stroke-width="15" stroke-miterlimit="10" stroke-linecap="round" stroke-linejoin="round"/>
<path d="M1245.4 1155.1V1237.1" stroke="black" stroke-width="15" stroke-miterlimit="10" stroke-linecap="round" stroke-linejoin="round"/>
<path d="M1312.4 1154.8V1237.4" stroke="black" stroke-width="15" stroke-miterlimit="10" stroke-linecap="round" stroke-linejoin="round"/>
<path d="M1140.9 1196.1C1125.9 1211.4 1123.6 1241.4 1139.6 1256.9" stroke="black" stroke-width="15" stroke-miterlimit="10" stroke-linecap="round" stroke-linejoin="round"/>
<path d="M1418.3 1196.1C1433.3 1211.4 1435.6 1241.4 1419.6 1256.9" stroke="black" stroke-width="15" stroke-miterlimit="10" stroke-linecap="round" stroke-linejoin="round"/>
</g>
<defs>
<clipPath id="clip0_144_10">
<rect width="2000" height="2000" fill="white"/>
</clipPath>
</defs>
</svg>
